<svg id="Layer_1" data-name="Layer 1" xmlns="http://www.w3.org/2000/svg" xmlns:xlink="http://www.w3.org/1999/xlink" viewBox="0 0 32.55 43.84"><defs><style>.cls-1{fill:#febd11;}.cls-1,.cls-2,.cls-3{stroke:#231f20;stroke-miterlimit:10;stroke-width:0.25px;}.cls-2{fill:none;}.cls-3{fill:url(#White_Black);}</style><linearGradient id="White_Black" x1="265.53" y1="447.63" x2="276.32" y2="447.63" gradientUnits="userSpaceOnUse"><stop offset="0" stop-color="#fff"/><stop offset="1" stop-color="#231f20"/></linearGradient></defs><path class="cls-1" d="M267.83,446.21l-1,.92,1.61-.56Zm6.2,2.73c-.09.27-.17.54-.26.82.39,0,.77,0,1.11-.08l.67.1c.06-.07.12-.15.19-.22l.17-.19C275.34,449.26,274.71,449.12,274,448.94Zm3.32,1.09c0,.06,0,.13,0,.19h.79a.43.43,0,0,0,0-.07Zm12.4-7.41,3.11-.39-2.59-1.8,6-1.39-6-1.32,2.67-2-3.35-.15,4.83-4.47L288.11,433l1.44-2.83-2.95,1.32c.6-2,1.19-4,1.79-6.07-1.43,1.59-2.87,3.17-4.3,4.75,0-1.1-.06-2.2-.08-3.31l-2,2.79q-.68-3.21-1.36-6.42-.7,3.26-1.43,6.5c-.64-1-1.27-2.07-1.92-3.11,0,1.25-.08,2.5-.11,3.75l-4.51-5.06,2.11,6.26-2.95-1.48c.43,1,.85,2,1.28,2.95l-6.34-1.83,4.9,4.39-3.35.19,2.87,2-6.34,1.16,6.38,1.43-2.95,2,1.9.1c.54-.5,1.09-1,1.64-1.6a8.78,8.78,0,0,1-.21-1.93,8.93,8.93,0,0,1,8.63-8.93l.72-1.23c0,.38,0,.8.07,1.24a8.93,8.93,0,0,1,4.23,16.5c.47.92,1,1.89,1.65,2.9a2.67,2.67,0,0,1-.65.75l2.16,2.36-1.71-5.94,3.07,1.44-1.56-2.91,6,1.71Z" transform="translate(-264.27 -422.61)"/><path class="cls-1" d="M271.66,438.92a8.78,8.78,0,0,0,.21,1.93c.35-.36.72-.74,1.08-1.13l.8-.87.22-.26c.55-.61,1.06-1.22,1.55-1.83.33-.4.65-.79,1-1.19.6-.77,1.16-1.54,1.68-2.29.8-1.14,1.51-2.25,2.14-3.29A8.93,8.93,0,0,0,271.66,438.92Zm9.42-8.92a52.7,52.7,0,0,0,.73,5.68c.08.44.17.9.27,1.4s.2,1,.33,1.52.35,1.38.58,2.15c.16.52.34,1.07.55,1.65a35.66,35.66,0,0,0,1.38,3.29c.12.26.26.53.39.81a8.93,8.93,0,0,0-4.23-16.5Z" transform="translate(-264.27 -422.61)"/><path class="cls-2" d="M265.53,446.89l-.06.06A28.6,28.6,0,0,0,266.1,457c.89,3.57,1.52,6.15,3.93,7.81a8.83,8.83,0,0,0,9.63.09c2-1.42,2.69-3.54,3.8-7.1a29.14,29.14,0,0,0,1.26-7.17" transform="translate(-264.27 -422.61)"/><path class="cls-2" d="M266.91,445.35l-.13.15" transform="translate(-264.27 -422.61)"/><path class="cls-2" d="M277.63,449.4" transform="translate(-264.27 -422.61)"/><path class="cls-3" d="M276.32,449.44l-.58.12c-.26.05-.54.09-.86.12h0c-.34,0-.72.07-1.11.08a12.92,12.92,0,0,1-3.23-.36,12.64,12.64,0,0,1-5-2.51l1.25-1.39c.32.23.67.47,1.05.71l.6.36a24.31,24.31,0,0,0,2.4,1.23,25,25,0,0,0,3.2,1.14c.68.18,1.31.32,1.88.43Z" transform="translate(-264.27 -422.61)"/><path class="cls-2" d="M276.32,449.44l1,.18,1.07.19,1.2.19,2,.31c.69.09,1.3.17,1.8.22" transform="translate(-264.27 -422.61)"/><path class="cls-2" d="M284,450.58l.66.05a2.61,2.61,0,0,0,1.39-.3l.28-.18a2.67,2.67,0,0,0,.65-.75c-.63-1-1.18-2-1.65-2.9-.13-.28-.27-.55-.39-.81a35.66,35.66,0,0,1-1.38-3.29c-.21-.58-.39-1.13-.55-1.65-.23-.77-.42-1.48-.58-2.15s-.24-1.05-.33-1.52-.19-1-.27-1.4a52.7,52.7,0,0,1-.73-5.68c0-.44-.05-.86-.07-1.24l-.72,1.23c-.63,1-1.34,2.15-2.14,3.29-.52.75-1.08,1.52-1.68,2.29-.3.4-.62.79-1,1.19-.49.61-1,1.22-1.55,1.83l-.22.26-.8.87c-.36.39-.73.77-1.08,1.13-.55.56-1.1,1.1-1.64,1.6s-.92.86-1.38,1.25l-1,.87-.95.78" transform="translate(-264.27 -422.61)"/><path class="cls-2" d="M281.51,434.29a4.82,4.82,0,0,1-1.85-.21,4.9,4.9,0,0,1-1.57-.85" transform="translate(-264.27 -422.61)"/><path class="cls-2" d="M282.11,437.07h0a8.43,8.43,0,0,1-5.61-1.51l0,0" transform="translate(-264.27 -422.61)"/><path class="cls-2" d="M282.48,438.6h-.07a12.39,12.39,0,0,1-3.77-.47,12.18,12.18,0,0,1-3.12-1.37l0,0" transform="translate(-264.27 -422.61)"/><path class="cls-2" d="M283,440.75a13.08,13.08,0,0,1-9-2.16l-.06,0" transform="translate(-264.27 -422.61)"/><path class="cls-2" d="M283.5,442.31a18.94,18.94,0,0,1-5.91-.63,18.69,18.69,0,0,1-4.69-2" transform="translate(-264.27 -422.61)"/><path class="cls-2" d="M271.42,441.38l.67.31c1,.46,2.17.92,3.43,1.34a36.07,36.07,0,0,0,4.77,1.22,12.9,12.9,0,0,1-6-.38,13.05,13.05,0,0,1-1.54-.58,11.79,11.79,0,0,1-1.13-.59l-.31-.18h0c-.26-.16-.49-.32-.7-.46" transform="translate(-264.27 -422.61)"/><path class="cls-2" d="M285.4,446.7l-.51.05h0a18,18,0,0,1-9.57-1.82c1.6.2,3.28.37,5,.5s3.12.21,4.59.26h0" transform="translate(-264.27 -422.61)"/><path class="cls-2" d="M267.84,444.55l0,0a4.12,4.12,0,0,0,.95.74,3,3,0,0,0,.59.29,3.94,3.94,0,0,0,1,.27,4.56,4.56,0,0,0,1.67-.1c-.19-.09-.38-.18-.57-.29a11.33,11.33,0,0,1-1-.6c-.25-.15-.49-.31-.71-.47s-.65-.48-.94-.71l0,0" transform="translate(-264.27 -422.61)"/><path class="cls-2" d="M265.47,447.42a9.26,9.26,0,0,0,4,1.81" transform="translate(-264.27 -422.61)"/><path class="cls-2" d="M265.26,448l.11.06a14.68,14.68,0,0,0,4.79,1.84,21.28,21.28,0,0,0,3.47.27l1.13,0h.4c.82,0,1.56,0,2.2,0h1.28l-.45-.07-.84-.11-1.8-.25-.67-.1h0l-.21,0" transform="translate(-264.27 -422.61)"/><path class="cls-2" d="M284.68,450.71a6.48,6.48,0,0,1-2.62,1.48,7,7,0,0,1-.84.18,5.92,5.92,0,0,1-1.08.07,6.68,6.68,0,0,1-.91-.08,5.47,5.47,0,0,0,.81-.4l.17-.11a5,5,0,0,0,1.05-.93c-.48.09-.95.16-1.4.22a37.1,37.1,0,0,1-4.38.37l-1.5,0h-.8a14.9,14.9,0,0,1-3.74-.49,15.53,15.53,0,0,1-4.14-1.79l0,0" transform="translate(-264.27 -422.61)"/><path class="cls-2" d="M265.3,450.5a20.91,20.91,0,0,0,6.34,2.28c.37.07.73.12,1.08.17h0a20.75,20.75,0,0,0,5.16,0c-.28.2-.58.39-.88.59-.48.31-.94.59-1.4.85a22.94,22.94,0,0,0,4.81-.81l.59-.17.13,0A22.74,22.74,0,0,0,284.6,452" transform="translate(-264.27 -422.61)"/><path class="cls-2" d="M283.71,456.83a2.62,2.62,0,0,1-.76.89,2.74,2.74,0,0,1-1.31.51,2.08,2.08,0,0,1,.25-.76,2.11,2.11,0,0,1,1-.89,21.14,21.14,0,0,1-13.6,1.14,4.28,4.28,0,0,0,.68-.51,4.14,4.14,0,0,0,.55-.59c-.54-.19-1.11-.42-1.69-.67a26.12,26.12,0,0,1-2.49-1.27v-1.22a11,11,0,0,0,2.4,1.26,11.26,11.26,0,0,0,4.73.68l-1.35.84c-.29.19-.59.37-.89.55a20.09,20.09,0,0,0,5.49.13,20.42,20.42,0,0,0,7.6-2.45" transform="translate(-264.27 -422.61)"/><path class="cls-2" d="M266.57,458.9a.92.92,0,0,1,.67.25,1.07,1.07,0,0,1,.22.85,1.6,1.6,0,0,1-.3.8" transform="translate(-264.27 -422.61)"/><path class="cls-2" d="M267.92,459a22.92,22.92,0,0,0,4.6,1.26,22.58,22.58,0,0,0,6.21.17,10.38,10.38,0,0,1-3.63,1.19,7.92,7.92,0,0,1-4.31-.43A7.25,7.25,0,0,1,267.92,459Z" transform="translate(-264.27 -422.61)"/><path class="cls-2" d="M282.7,459.79c-.1-.16-1.05.35-3.3,1.18-1.72.64-3.17,1.08-4.13,1.35a7.88,7.88,0,0,0,4.13-.21C281.36,461.44,282.82,460,282.7,459.79Z" transform="translate(-264.27 -422.61)"/><path class="cls-2" d="M269.4,462.49a9.48,9.48,0,0,0,2.78,1.52,10.24,10.24,0,0,0,5.41.25A12.07,12.07,0,0,0,281,463a8.17,8.17,0,0,1-4,2.28,7.34,7.34,0,0,1-5.07-.55A7,7,0,0,1,269.4,462.49Z" transform="translate(-264.27 -422.61)"/><path class="cls-2" d="M268.13,462.83a1,1,0,0,1,1.06.17,1,1,0,0,1,.17,1.26" transform="translate(-264.27 -422.61)"/></svg>